<?xml version="1.0" encoding="utf-8"?>
<!-- Generator: Adobe Illustrator 23.0.3, SVG Export Plug-In . SVG Version: 6.00 Build 0)  -->
<svg version="1.1" id="Capa_1" xmlns="http://www.w3.org/2000/svg" xmlns:xlink="http://www.w3.org/1999/xlink" x="0px" y="0px"
	 viewBox="0 0 162.98 151.29" enable-background="new 0 0 162.98 151.29" xml:space="preserve">
<g>
	<g>
		<path fill="#FBED3F" d="M162.98,95.26l-19.61-39.22l-19.61,39.22h13.21c-8.32,25.96-32.63,44.83-61.32,44.83
			c-35.53,0-64.44-28.91-64.44-64.44c0-35.53,28.91-64.44,64.44-64.44c27.38,0,50.76,17.19,60.08,41.33l6.44-12.88
			C129.34,16.05,104.34,0,75.65,0C33.94,0,0,33.93,0,75.64c0,41.71,33.94,75.64,75.64,75.64c34.92,0,64.33-23.81,73-56.03
			L162.98,95.26L162.98,95.26z"/>
		<path fill="#FBED3F" d="M35.49,90.74h7.08l2.15-7.75h8.65l2.33,7.75h7.35l-9.36-30.19h-8.96L35.49,90.74z M47.49,71.48
			c0.49-1.75,0.94-4.03,1.39-5.82h0.09c0.45,1.79,0.99,4.04,1.53,5.82l1.88,6.41h-6.67L47.49,71.48z"/>
		<path fill="#FBED3F" d="M81.74,65.88c3.31,0,5.37,0.58,7.03,1.29l1.44-5.47c-1.48-0.71-4.48-1.48-8.38-1.48
			c-9.9,0-17.2,5.73-17.25,15.77c-0.04,4.43,1.48,8.37,4.26,10.98c2.78,2.69,6.76,4.08,12.28,4.08c3.98,0,7.97-0.99,10.07-1.7v-15.9
			H79.94v5.33h4.67v6.31c-0.54,0.27-1.8,0.45-3.36,0.45c-5.6,0-9.5-3.68-9.5-9.9C71.75,69.1,76.04,65.88,81.74,65.88z"/>
		<polygon fill="#FBED3F" points="115.18,66.15 115.18,60.55 96.54,60.55 96.54,90.74 115.8,90.74 115.8,85.14 103.39,85.14 
			103.39,77.98 114.51,77.98 114.51,72.42 103.39,72.42 103.39,66.15 		"/>
	</g>
</g>
</svg>
