<?xml version="1.0" encoding="utf-8"?>
<!-- Generator: Adobe Illustrator 23.0.3, SVG Export Plug-In . SVG Version: 6.00 Build 0)  -->
<svg version="1.1" id="Capa_1" xmlns="http://www.w3.org/2000/svg" xmlns:xlink="http://www.w3.org/1999/xlink" x="0px" y="0px"
	 viewBox="0 0 468.9 512" enable-background="new 0 0 468.9 512" xml:space="preserve">
<g>
	<path fill="#FBED3F" d="M343.97,272.24c-3.46,0.29-6.27,2.92-6.79,6.36c-3.81,25.23-16.69,44.97-28.14,58.07
		c6.12-25.13,7.5-50.17,4.08-74.75c-4.14-29.72-15.58-58.7-33.09-83.8c-36.37-52.13-48.81-95.28-52.84-122.3
		c-4.36-29.17-0.11-46.31-0.08-46.45c1.85-7-6.82-12.33-12.24-7.52c-51.52,45.83-74.29,94.22-84.32,126.75
		c-3.13,10.15-5.25,19.4-6.69,27.47c-23.9-38.22-72.49-53.96-75.03-54.76c-6.4-2.02-12.13,5.18-8.72,10.96
		c22.9,38.85,13.03,68.58-1.14,100.67c-3.91,8.85,9.82,14.91,13.72,6.06c13.13-29.74,23.49-59.61,9.38-95.91
		c20.92,10.35,53.55,31.9,59.03,67.34c1.41,9.15,15.47,7.63,14.9-1.61c-0.05-0.87-4.1-82.76,74.18-161.87
		c-0.71,29.26,6.43,86.48,57.55,159.75c20.34,29.15,49.82,90.26,18.78,171.93c-2.54,6.69,5.32,12.9,11.24,8.86
		c1.52-1.04,31.02-21.54,46.41-58.6c0.92,5.27,1.55,10.62,1.55,15.35c0,95.25-77.44,172.75-172.62,172.75
		c-47.04,0-90.98-18.97-120.55-52.05c-28.48-31.86-41.45-73.63-36.51-117.63c3.12-27.81,11.53-50.7,17.58-65.5
		c3.66-8.95-10.22-14.63-13.89-5.68c-6.39,15.63-15.28,39.84-18.61,69.51c-5.42,48.3,8.87,94.22,40.24,129.3
		C73.78,491.21,121.79,512,173.09,512c103.45,0,187.62-84.22,187.62-187.75c0-19.35-8.63-45.76-8.99-46.88
		C350.64,274.07,347.44,271.96,343.97,272.24z"/>
	<path fill="#FBED3F" d="M294.57,44.93h22.48v22.48c0,9.67,15,9.67,15,0V44.93h22.48c9.67,0,9.67-15,0-15h-22.48V7.45
		c0-9.67-15-9.67-15,0v22.48h-22.48C284.9,29.93,284.9,44.93,294.57,44.93z"/>
	<path fill="#FBED3F" d="M461.65,80.57h-22.48V58.09c0-9.67-15-9.67-15,0v22.48h-22.48c-9.67,0-9.67,15,0,15h22.48v22.48
		c0,9.67,15,9.67,15,0V95.57h22.48C471.32,95.57,471.32,80.57,461.65,80.57z"/>
	<path fill="#FBED3F" d="M386.46,151.37h-22.48v-22.48c0-4.14-3.36-7.5-7.5-7.5c-4.14,0-7.5,3.36-7.5,7.5v22.48H326.5
		c-9.67,0-9.67,15,0,15h22.48v22.48c0,9.67,15,9.67,15,0v-22.48h22.48C396.13,166.37,396.13,151.37,386.46,151.37z"/>
	<path fill="#FBED3F" d="M194.46,356.81c4.93,8.33,17.84,0.68,12.91-7.64c-12.94-21.87-25.18-39.47-25.7-40.21
		c-2.92-4.19-9.38-4.2-12.31,0c-5.67,8.14-55.41,80.4-55.41,111.71c0,33.95,27.62,61.56,61.56,61.56s61.56-27.62,61.56-61.56
		c0-9.34-4.11-22.41-12.57-39.94c-4.21-8.71-17.71-2.19-13.51,6.52c9.16,18.98,11.08,28.65,11.08,33.42
		c0,25.67-20.89,46.56-46.56,46.56s-46.56-20.89-46.56-46.56c0-19.85,29.48-68.36,46.55-94.04
		C180.3,333.86,187.32,344.75,194.46,356.81z"/>
</g>
</svg>
