<?xml version="1.0" encoding="utf-8"?>
<!-- Generator: Adobe Illustrator 23.0.3, SVG Export Plug-In . SVG Version: 6.00 Build 0)  -->
<svg version="1.1" id="Layer_1" xmlns="http://www.w3.org/2000/svg" xmlns:xlink="http://www.w3.org/1999/xlink" x="0px" y="0px"
	 viewBox="0 0 496 496" enable-background="new 0 0 496 496" xml:space="preserve">
<g>
	<g>
		<g>
			<path fill="#FBED3F" d="M248,136c13.23,0,24-10.77,24-24c0-10.42-6.71-19.22-16-22.53V32h-16v57.47c-9.3,3.31-16,12.11-16,22.53
				C224,125.23,234.77,136,248,136z M248,104c4.42,0,8,3.58,8,8s-3.58,8-8,8s-8-3.58-8-8S243.58,104,248,104z"/>
			<path fill="#FBED3F" d="M448,248h-2.85l2.43-20.16c0.27-2.23,0.42-4.48,0.42-6.74V152c0-30.87-25.13-56-56-56h-33.28
				C350.92,41.82,304.31,0,248,0S145.08,41.82,137.28,96H104c-30.87,0-56,25.13-56,56v69.1c0,2.26,0.14,4.51,0.41,6.74L50.85,248H0
				v96h62.49l12.45,102.74c3.41,28.09,27.3,49.26,55.59,49.26h234.94c28.29,0,52.18-21.18,55.59-49.26l2.76-22.74H448
				c26.47,0,48-21.53,48-48v-80C496,269.53,474.47,248,448,248z M248,16c52.94,0,96,43.06,96,96s-43.06,96-96,96s-96-43.06-96-96
				S195.06,16,248,16z M64,152c0-22.06,17.94-40,40-40h32c0,61.76,50.24,112,112,112s112-50.24,112-112h32c22.06,0,40,17.94,40,40
				v69.1c0,1.6-0.1,3.21-0.3,4.82L429.03,248H66.97l-2.68-22.1c-0.19-1.59-0.29-3.2-0.29-4.8V152z M405.17,444.82
				c-2.42,20.06-19.5,35.18-39.7,35.18H130.53c-20.2,0-37.27-15.13-39.7-35.18L78.61,344h338.78L405.17,444.82z M448,408h-22.24
				l7.76-64H448c17.65,0,32,14.35,32,32S465.65,408,448,408z M480,340.25c-8.5-7.61-19.72-12.25-32-12.25H16v-64h16v16h16v-16h16v16
				h16v-16h16v16h16v-16h16v16h16v-16h16v16h16v-16h16v16h16v-16h16v16h16v-16h16v16h16v-16h16v16h16v-16h16v16h16v-16h16v16h16v-16
				h16v16h16v-16h16v16h16v-16h16v24h16v-19.55c9.52,5.55,16,15.76,16,27.55V340.25z"/>
		</g>
	</g>
</g>
</svg>
