<?xml version="1.0" encoding="utf-8"?>
<!-- Generator: Adobe Illustrator 23.0.3, SVG Export Plug-In . SVG Version: 6.00 Build 0)  -->
<svg version="1.1" id="Warstwa_1" xmlns="http://www.w3.org/2000/svg" xmlns:xlink="http://www.w3.org/1999/xlink" x="0px" y="0px"
	 viewBox="0 0 512 512" enable-background="new 0 0 512 512" xml:space="preserve">
<path fill="#FBED3F" d="M102.4,85.34h8.54c4.71,0,8.53-3.82,8.53-8.53c0-4.71-3.82-8.54-8.53-8.54h-8.54
	c-4.71,0-8.53,3.82-8.53,8.54C93.87,81.52,97.69,85.34,102.4,85.34z"/>
<path fill="#FBED3F" d="M145.07,85.34H256c4.71,0,8.53-3.82,8.53-8.53c0-4.71-3.82-8.54-8.53-8.54H145.07
	c-4.71,0-8.54,3.82-8.54,8.54C136.54,81.52,140.36,85.34,145.07,85.34z"/>
<path fill="#FBED3F" d="M434.54,273.07H416c-0.06,0-0.12,0-0.18,0c-3.88,0.01-7.74,0.58-11.46,1.71c-0.29,0.07-0.57,0.15-0.85,0.25
	c-4.52,1.57-8.72,3.94-12.39,7.01c1.85-19.63,11.57-48.13,48.45-69.91c3.93-2.45,5.18-7.59,2.83-11.57
	c-2.36-3.99-7.46-5.37-11.5-3.12c-22.91,12.45-40.78,32.47-50.55,56.64c-0.45-1.48-0.94-2.92-1.47-4.27
	c-4.27-11.24-11.32-21.22-20.48-29.01V76.81c0-14.14-11.46-25.6-25.6-25.6h-35.7c-3.61-10.19-13.22-17.02-24.03-17.07h-45.71
	C220.18,13.69,200.88,0,179.2,0s-40.98,13.69-48.15,34.14H85.34c-10.81,0.05-20.43,6.87-24.03,17.07h-35.7
	c-14.14,0-25.6,11.46-25.6,25.6V486.4c0,14.14,11.46,25.6,25.6,25.6H332.8c3.99,0,7.92-0.95,11.47-2.77
	c7.79,1.83,15.77,2.76,23.78,2.77h31.9C461.73,512,512,458.42,512,392.53v-36.95C512,310.1,477.25,273.07,434.54,273.07z
	 M362.92,255.92c2.22,6.7,3.82,13.58,4.77,20.57c-0.85-0.37-1.61-0.86-2.47-1.14c-4.2-1.51-8.63-2.28-13.09-2.28
	c-0.07,0-0.12,0-0.19,0h-18.48c-2.34,0-4.64,0.16-6.93,0.38c-0.21-0.06-0.37-0.2-0.59-0.24c-28.24-5.66-27.85-38.6-26.78-50.4
	c5.45-0.63,10.92-0.93,16.4-0.91h0.18c21.36,0.19,40.28,13.84,47.19,34.06V255.92z M276.23,460.8H51.21V102.4h10.11
	c3.6,10.19,13.22,17.02,24.03,17.07h187.73c10.81-0.04,20.43-6.87,24.03-17.07h10.1v102.53c-22.04,0.79-23.5,6.92-24.28,10.43
	c-3,17.55-1.48,48.64,18.84,65.05c-28.39,14.23-46.16,43.43-45.75,75.17v36.95C255.93,416.78,262.96,440.51,276.23,460.8z
	 M341.33,76.81v133.53c-5.46-2.29-11.2-3.86-17.07-4.68V102.4c0-9.43-7.64-17.07-17.07-17.07h-8.53V68.27h34.13
	C337.51,68.27,341.33,72.09,341.33,76.81z M85.34,51.21h52.05c0.29-0.04,0.57-0.1,0.85-0.18c0.54-0.05,1.06-0.16,1.57-0.32
	c0.54-0.16,1.07-0.38,1.56-0.65c1.42-0.76,2.58-1.93,3.34-3.34c0.28-0.5,0.5-1.02,0.66-1.56c0.13-0.26,0.24-0.52,0.34-0.79
	c3.25-15.89,17.23-27.3,33.44-27.3c16.22,0,30.19,11.41,33.44,27.3c0.1,0.31,0.22,0.61,0.36,0.91c0.13,0.41,0.29,0.82,0.48,1.22
	c0.29,0.55,0.64,1.07,1.04,1.54c0.25,0.32,0.51,0.62,0.8,0.91c0.51,0.44,1.06,0.81,1.66,1.12c1.2,0.82,2.63,1.22,4.08,1.15h52.05
	c4.71,0,8.54,3.82,8.54,8.54v34.13c0,4.71-3.82,8.53-8.54,8.53H85.34c-4.71,0-8.53-3.82-8.53-8.53V59.74
	C76.81,55.03,80.63,51.21,85.34,51.21z M25.61,494.93c-4.71,0-8.54-3.82-8.54-8.54V76.81c0-4.71,3.82-8.54,8.54-8.54h34.13v17.07
	h-8.54c-9.43,0-17.07,7.64-17.07,17.07v358.4c0,9.43,7.64,17.07,17.07,17.07h238.57c6.25,6.49,13.24,12.22,20.84,17.07H25.61z
	 M494.93,392.53c0,56.46-42.62,102.4-94.98,102.4h-31.9c-52.37,0-94.98-45.93-94.98-102.4v-36.95c0-36.07,27.09-65.45,60.39-65.45
	h18.82c2.44,0.02,4.86,0.46,7.16,1.28c9.92,3.97,16.32,13.71,16.03,24.39v8.46c0,4.71,3.82,8.54,8.54,8.54
	c4.71,0,8.53-3.82,8.53-8.54v-8.48c-0.32-10.67,6.03-20.42,15.93-24.43l0.41-0.12c2.21-0.71,4.51-1.09,6.82-1.12h18.84
	c33.3,0.02,60.4,29.39,60.4,65.46V392.53z"/>
<path fill="#FBED3F" d="M321.57,307.64c-1.29,0.42-31.44,10.94-31.44,50.76c0,4.71,3.82,8.54,8.54,8.54c4.71,0,8.53-3.82,8.53-8.54
	c0-27.08,18.87-34.25,19.84-34.59c4.46-1.51,6.86-6.36,5.35-10.82C330.88,308.52,326.04,306.13,321.57,307.64z"/>
<path fill="#FBED3F" d="M110.94,145.07h-25.6c-9.43,0-17.07,7.64-17.07,17.07v25.6c0,9.43,7.64,17.07,17.07,17.07h25.6
	c9.43,0,17.07-7.64,17.07-17.07v-25.6C128.01,152.71,120.37,145.07,110.94,145.07z M85.34,187.74v-25.6h25.6v25.6H85.34z"/>
<path fill="#FBED3F" d="M110.94,221.87h-25.6c-9.43,0-17.07,7.64-17.07,17.07v25.6c0,9.43,7.64,17.07,17.07,17.07h25.6
	c9.43,0,17.07-7.64,17.07-17.07v-25.6C128.01,229.51,120.37,221.87,110.94,221.87z M85.34,264.54v-25.6h25.6v25.6H85.34z"/>
<path fill="#FBED3F" d="M110.94,298.67h-25.6c-9.43,0-17.07,7.64-17.07,17.07v25.6c0,9.43,7.64,17.07,17.07,17.07h25.6
	c9.43,0,17.07-7.64,17.07-17.07v-25.6C128.01,306.31,120.37,298.67,110.94,298.67z M85.34,341.33v-25.6h25.6v25.6H85.34z"/>
<path fill="#FBED3F" d="M110.94,375.47h-25.6c-9.43,0-17.07,7.64-17.07,17.07v25.6c0,9.43,7.64,17.07,17.07,17.07h25.6
	c9.43,0,17.07-7.64,17.07-17.07v-25.6C128.01,383.11,120.37,375.47,110.94,375.47z M85.34,418.13v-25.6h25.6v25.6H85.34z"/>
<path fill="#FBED3F" d="M153.61,187.74h119.46c4.71,0,8.54-3.82,8.54-8.54c0-4.71-3.82-8.53-8.54-8.53H153.61
	c-4.71,0-8.54,3.82-8.54,8.53C145.07,183.92,148.89,187.74,153.61,187.74z"/>
<path fill="#FBED3F" d="M247.47,247.47h-93.86c-4.71,0-8.54,3.82-8.54,8.54c0,4.71,3.82,8.53,8.54,8.53h93.86
	c4.71,0,8.54-3.82,8.54-8.53C256,251.29,252.18,247.47,247.47,247.47z"/>
<path fill="#FBED3F" d="M230.4,324.27h-76.8c-4.71,0-8.54,3.82-8.54,8.54c0,4.71,3.82,8.53,8.54,8.53h76.8
	c4.71,0,8.54-3.82,8.54-8.53C238.94,328.09,235.12,324.27,230.4,324.27z"/>
<path fill="#FBED3F" d="M230.4,401.07h-76.8c-4.71,0-8.54,3.82-8.54,8.54c0,4.71,3.82,8.53,8.54,8.53h76.8
	c4.71,0,8.54-3.82,8.54-8.53C238.94,404.89,235.12,401.07,230.4,401.07z"/>
</svg>
