<?xml version="1.0" encoding="utf-8"?>
<!-- Generator: Adobe Illustrator 23.0.3, SVG Export Plug-In . SVG Version: 6.00 Build 0)  -->
<svg version="1.1" id="Capa_1" xmlns="http://www.w3.org/2000/svg" xmlns:xlink="http://www.w3.org/1999/xlink" x="0px" y="0px"
	 viewBox="0 0 271.82 372.59" enable-background="new 0 0 271.82 372.59" xml:space="preserve">
<g>
	<g>
		<path fill="#FBED3F" d="M271.8,55.15L269,11.47c-0.18-2.31-1.1-4.5-2.64-6.24c-1.79-1.41-3.96-2.25-6.24-2.4l-43.68-2.8
			c-4.4-0.36-8.27,2.91-8.63,7.31c0,0.04-0.01,0.08-0.01,0.13c-0.27,4.39,3.05,8.18,7.44,8.48l27.04,1.76l-33.92,33.92
			c-36.96-30.8-91.9-25.8-122.7,11.16c-9.77,11.72-16.29,25.81-18.9,40.84c-46.81,11.3-75.61,58.41-64.31,105.22
			c8.76,36.28,39.63,62.96,76.79,66.38v37.04H51.96c-4.42,0-8,3.58-8,8s3.58,8,8,8h27.36v36.32c0,4.42,3.58,8,8,8s8-3.58,8-8v-36.32
			h27.36c4.42,0,8-3.58,8-8s-3.58-8-8-8H95.32v-37.04c39.21-3.71,71.09-33.2,77.84-72c46.77-11.3,75.52-58.38,64.22-105.15
			c-3.11-12.88-9.13-24.88-17.58-35.09l34.08-34.08l1.92,27.28c0.25,4.23,3.76,7.53,8,7.52c4.42,0.01,8.01-3.56,8.02-7.98
			C271.82,55.53,271.81,55.34,271.8,55.15z M87.32,259.63c-39.37-0.06-71.23-32.03-71.16-71.4c0.05-30.9,20-58.24,49.4-67.72
			c0.83,47.51,39.61,85.57,87.12,85.52h3.6C148.19,237.52,119.83,259.56,87.32,259.63z M158.52,189.71c-1.92,0-3.84,0-5.76,0
			c-39.28,0.05-71.16-31.74-71.22-71.02c0-0.54,0.01-1.08,0.02-1.62c1.92,0,3.84,0,5.76,0c39.35,0.04,71.24,31.93,71.28,71.28
			C158.6,188.83,158.52,189.23,158.52,189.71z M221.76,135.73c-3.15,12.44-9.6,23.79-18.68,32.86v0.56
			c-8.03,7.89-17.82,13.76-28.56,17.12c-0.96-47.48-39.71-85.49-87.2-85.52h-3.6c9.66-38.12,48.39-61.19,86.51-51.53
			C208.35,58.88,231.42,97.61,221.76,135.73z"/>
	</g>
</g>
</svg>
