<?xml version="1.0" encoding="utf-8"?>
<!-- Generator: Adobe Illustrator 23.0.3, SVG Export Plug-In . SVG Version: 6.00 Build 0)  -->
<svg version="1.1" id="Layer_1" xmlns="http://www.w3.org/2000/svg" xmlns:xlink="http://www.w3.org/1999/xlink" x="0px" y="0px"
	 viewBox="0 0 411.43 512" enable-background="new 0 0 411.43 512" xml:space="preserve">
<g>
	<g>
		<path fill="#FBED3F" d="M265.14,146.29h-4.94c8.72-9.72,14.08-22.51,14.08-36.57c0-30.25-24.6-54.86-54.86-54.86
			s-54.86,24.6-54.86,54.86c0,14.06,5.36,26.85,14.08,36.57h-4.94c-25.21,0-45.71,20.51-45.71,45.71v128c0,5.05,4.09,9.14,9.14,9.14
			h27.43v173.71c0,5.05,4.09,9.14,9.14,9.14h45.71h9.14c25.21,0,45.71-20.51,45.71-45.71V329.14h27.43c5.06,0,9.14-4.1,9.14-9.14
			V192C310.86,166.79,290.35,146.29,265.14,146.29z M219.43,73.14c20.17,0,36.57,16.4,36.57,36.57s-16.4,36.57-36.57,36.57
			s-36.57-16.4-36.57-36.57S199.26,73.14,219.43,73.14z M225.03,164.57l-5.61,16.81l-5.61-16.8L225.03,164.57L225.03,164.57z
			 M292.57,310.86h-18.29V192H256v274.29c0,15.12-12.31,27.43-27.43,27.43V329.14h-18.29v164.57h-27.43V192h-18.29v118.86h-18.29
			V192c0-15.12,12.31-27.43,27.43-27.43h20.85l16.2,48.6c1.24,3.74,4.73,6.25,8.67,6.25s7.42-2.51,8.67-6.25l16.2-48.6h20.85
			c15.12,0,27.43,12.31,27.43,27.43L292.57,310.86L292.57,310.86z"/>
	</g>
</g>
<g>
	<g>
		<path fill="#FBED3F" d="M100.57,0H9.14C4.09,0,0,4.1,0,9.14v493.71C0,507.9,4.09,512,9.14,512h91.43c5.06,0,9.14-4.1,9.14-9.14
			V9.14C109.71,4.1,105.63,0,100.57,0z M91.43,54.86H73.14v18.29h18.29v36.57H54.86V128h36.57v36.57H73.14v18.29h18.29v36.57H54.86
			v18.29h36.57v36.57H73.14v18.29h18.29v36.57H54.86v18.29h36.57V384H73.14v18.29h18.29v36.57H54.86v18.29h36.57v36.57H18.28V18.29
			h73.14L91.43,54.86L91.43,54.86z"/>
	</g>
</g>
<g>
	<g>
		<rect x="128" y="18.29" fill="#FBED3F" width="18.29" height="18.29"/>
	</g>
</g>
<g>
	<g>
		<rect x="164.57" y="18.29" fill="#FBED3F" width="18.29" height="18.29"/>
	</g>
</g>
<g>
	<g>
		<rect x="201.14" y="18.29" fill="#FBED3F" width="18.29" height="18.29"/>
	</g>
</g>
<g>
	<g>
		<rect x="237.71" y="18.29" fill="#FBED3F" width="18.29" height="18.29"/>
	</g>
</g>
<g>
	<g>
		<rect x="274.29" y="18.29" fill="#FBED3F" width="18.29" height="18.29"/>
	</g>
</g>
<g>
	<g>
		<rect x="310.86" y="18.29" fill="#FBED3F" width="18.29" height="18.29"/>
	</g>
</g>
<g>
	<g>
		<rect x="283.43" y="493.71" fill="#FBED3F" width="18.29" height="18.29"/>
	</g>
</g>
<g>
	<g>
		<rect x="320" y="493.71" fill="#FBED3F" width="18.29" height="18.29"/>
	</g>
</g>
<g>
	<g>
		<rect x="356.57" y="493.71" fill="#FBED3F" width="18.29" height="18.29"/>
	</g>
</g>
<g>
	<g>
		<rect x="393.14" y="493.71" fill="#FBED3F" width="18.29" height="18.29"/>
	</g>
</g>
</svg>
