<?xml version="1.0" encoding="utf-8"?>
<!-- Generator: Adobe Illustrator 23.0.3, SVG Export Plug-In . SVG Version: 6.00 Build 0)  -->
<svg version="1.1" id="Layer_1" xmlns="http://www.w3.org/2000/svg" xmlns:xlink="http://www.w3.org/1999/xlink" x="0px" y="0px"
	 viewBox="0 0 1720.6 1685.9" style="enable-background:new 0 0 1720.6 1685.9;" xml:space="preserve">
<style type="text/css">
	.st0{fill-rule:evenodd;clip-rule:evenodd;fill:#FFFFFF;stroke:#FFFFFF;stroke-miterlimit:10;}
</style>
<g>
	<g>
		<path class="st0" d="M213.9,719.5c-61-40.7-47.4-112.3-42.2-180.4c13,75.2,45.3,126.7,96,155.5l9.5-8c87.2-65.7-44.7-217.6-92-296
			C12,512.9,52.9,795.6,213.9,719.5z"/>
		<path class="st0" d="M73.6,1130.7c37.2-34.9,55.6-103,55.6-150.4V925c0-82.8-33.9-193.5-82.8-248.5c-62.7,94.5-65,352.5,12.6,453
			c13.2-101.9,6.8-215.8-6.1-333.9C77.6,897.2,83.5,1014.8,73.6,1130.7z"/>
		<path class="st0" d="M1490.6,888.2c2.3,110.1,162.4,237.6,210.5,87.4c-28.2,0.8-65.1-11.6-82.7-38.7
			c33.6,11.3,75.5,4.1,102.2-11.9c-8.4-93.3-129.9-64.4-211.6-64.4l-16.9,0.9L1490.6,888.2z"/>
		<path class="st0" d="M814.2,172.4c13.8-62,44.6-105.8,122.5-99.2c-50.9,28.1-79.2,71.5-74.8,137.2
			c80.4,26.8,111.8-119.1,158.7-184.8C943.9-42.2,688.3,30.6,814.2,172.4z"/>
		<path class="st0" d="M1239.9,142.9c-43.6,75.2,23.9,302.9,145.4,198.8c-24-49.4-57.6-94-99.2-134.5c44,17.8,83.5,51.1,118.6,99.8
			c16.2-21,12.4-2.2,12.4-35.2C1417,182.1,1306.3,107,1239.9,142.9z"/>
		<path class="st0" d="M532.3,1357.5c90.1-13.1,132.3,6.8,153.3,62.7c-34.3-36.3-89.7-41.1-159.4-24.3
			c28.9,153.6,154.2,42.2,226,80.5c8.8-85.4-24.7-164.9-117.2-164.9C598.5,1311.5,554.6,1329.3,532.3,1357.5z"/>
		<path class="st0" d="M663.5,739.7c-11.3-129.4,9.6-312.1-102-339.1c2.8,132.1-13.4,294.2,90.8,381.1
			c-33.6-82.9-31-176.2-67.4-246.9C623.4,585.4,636.6,664.7,663.5,739.7z"/>
		<path class="st0" d="M1251.4,1596.8c100.9-51.1,292.9-135.4,303.6-257.7c-88.8,64.8-248.8,103.2-292.8,212.1
			c71.7-54.6,163.3-76,222.7-129.8c-50.7,65.3-159.1,101.7-233.3,173.4C1251.6,1595.5,1251.5,1596.1,1251.4,1596.8z"/>
		<path class="st0" d="M213.8,333.2C302.5,377.8,423,250,469.5,179.7c-32.6-2.9-28.8-9.2-64.4-9.2c-77.9,0-139.6,72.6-187.2,134.7
			c55.7-28.8,113.7-50.6,155.6-88.6C338,262.3,274.3,293.9,213.8,333.2z"/>
		<path class="st0" d="M732.9,1140.8c31.7,32.7,37.7,78.2,38.4,126.4c-14.3-41.4-41.7-76.9-84.7-105.1
			c-36.9,77.2,42.7,118.1,95.7,178.6c35.7-27.4,55.2-77,55.2-121.2c0-46.8-19.2-75.3-57.5-107.1
			C750.6,1088.7,720.8,1116.7,732.9,1140.8z"/>
		<path class="st0" d="M1159.4,1569.2c61.6-14.9,146-77.8,139.2-147.4c-8.6-52.3-30.4-69-61.7-43.8c-4,53-26.4,91.8-59.1,122.6
			c19.6-41.8,25.7-87.1,12.1-137.7C1111,1413,1150.4,1480.3,1159.4,1569.2z"/>
		<path class="st0" d="M294.8,1412.7c-41-89.9-29.2-242.7-167.1-248.3c67.7,53.2,77,143.5,124.1,197.9
			c-47.6-38.8-71.6-121.7-126-175.7C149.3,1271.7,204.5,1410.8,294.8,1412.7z"/>
		<path class="st0" d="M1371,1366.7c41.9,0,80.5-15.3,94.2-59.7l-46.7-15.5l-7.4-51l-63.8-5.7l-31.6-44.6
			C1264.4,1255.5,1263.9,1366.7,1371,1366.7z"/>
		<path class="st0" d="M956.3,749.4c82.7,73.9,166.6,7.7,165.2-102.7c-20.5,42.6-47.3,60.1-77.7,62.6c22.4-19.9,37.1-47.5,40.6-86.4
			C985.9,617.7,1003.7,686.2,956.3,749.4z"/>
		<path class="st0" d="M1148.4,318.1c-14.4-77.5-110.2-101.7-182.1-101.6c2.1,97.7,84.7,117.4,168.8,119.4
			c-18.2-22.3-46.4-44.6-84.2-66.8C1079.2,273.7,1115.3,289.2,1148.4,318.1z"/>
		<path class="st0" d="M507.6,335.8H581c-30.6-13.4-92.3-10-109.5-44.3c25.6,16,76,9.2,115.1,25.6c-14.3-66-99.2-54.2-160-54.2
			C430.6,310.5,459.4,335.8,507.6,335.8z"/>
		<path class="st0" d="M762.7,277c61.9,38.9,96.2,63.4,164.6,26.7c-25.3-11.3-58.6-18.8-99.5-22.8c25.4-7.2,60.7-8.7,99,0.6
			C883.8,236.2,816.7,244.4,762.7,277z"/>
		<path class="st0" d="M1123.7,1345.9c55.2,19.4,109.4-54.3,116.2-96.4c-46.9-34.1-118.5,32.4-131.8,80.5
			c27.1-21.1,57-45.9,86.5-38.4C1171.8,1298.6,1149.6,1323.9,1123.7,1345.9z"/>
		<path class="st0" d="M1223.7,992.1c-19,36.7-11.2,40.8,17.9,63.7l35.5-7.9l-3.5-47c-15.5,7.6-31.9,14.7-48.3,22l-6.3-7.8
			c17.3-7.2,34-15.1,50.1-23.7L1223.7,992.1z"/>
		<path class="st0" d="M469.5,971l-3.2,53.3l54.3-3.8l4.8-31.9C503.7,959.7,499.7,951.9,469.5,971z"/>
		<polygon class="st0" points="855.7,486.3 852.7,536.4 899.7,532.5 895.7,485.4 		"/>
		<polygon class="st0" points="1472.6,454.1 1499.4,454.2 1498.2,428.5 1473,429.7 		"/>
		<polygon class="st0" points="356.3,1314.8 386.3,1319.1 380.8,1290.3 		"/>
		<path class="st0" d="M1300.1,1028c90,19.5,56.9,178.3-70.1,182.7c-117.7-5.7-170-147.6-75.8-181.7c29-10.4,50.8,3.8,79.8,4.5
			C1259.4,1034.2,1283.4,1024.4,1300.1,1028L1300.1,1028z M1237.9,1177.9c49.3,1,79.6-28,87.2-93.2c-0.2-45.9-39.2-41.7-38.3,3.2
			C1282.9,1124.1,1265.4,1153.4,1237.9,1177.9z"/>
		<path class="st0" d="M1257.5,997.3c49.8-43.4,61.4-108.8,169.9-118.6c-33.2,119.7-59.7,121.4-164.2,127.1
			c45.9-21.5,86.6-45.6,104.2-85.3C1335.2,951.2,1298.4,976.6,1257.5,997.3z"/>
		<path class="st0" d="M1216,821.8c54.9,58.1,44.7,109.2,15.1,158.3c0.7-32.3-3.9-62-20.3-86.5c6.6,33.1,9.2,66.8,8.2,101.1
			C1215.4,937.2,1157,884.5,1216,821.8z"/>
		<path class="st0" d="M1496.7,641.6c-6.2-95.2,161.3-107.4,201.9,17.7c27.9,118.8-98.5,211.3-159.3,127.3
			c-18.6-25.9-10.7-51.6-18.2-80.7C1514.6,680.3,1497.9,659.2,1496.7,641.6L1496.7,641.6z M1663.7,660.7
			c-13.1-49.3-50.6-71.2-117.7-60.2c-45.6,13.3-30.3,50.9,14.1,37.2C1597.3,631.3,1631.5,640.3,1663.7,660.7z"/>
		<path class="st0" d="M1472.6,689.1c-56.2-33.3-121.4-30-160.8-131.8c134.5-1.1,138.5,27.2,178.4,141.7
			c-25.6-47.1-53-89.1-95.9-104.7C1424.5,621.9,1450.4,653.7,1472.6,689.1z"/>
		<path class="st0" d="M1315.5,784.1c42.1-71.1,95.8-75.6,153-60.3c-38.9,8.5-73.2,21.8-95.6,49.1c36.4-19.5,75.5-33.5,116.8-42.6
			l0.7,0.2C1432,748.5,1396.4,825.9,1315.5,784.1z"/>
		<path class="st0" d="M995.5,1529.2c77.2,16.8,48.8,153-60.1,156.7c-101-4.9-145.9-126.7-65-155.9c24.9-8.9,43.6,3.3,68.5,3.9
			C960.5,1534.6,981.2,1526.1,995.5,1529.2L995.5,1529.2z M942.2,1657.8c42.3,0.8,68.3-24.1,74.8-80c-0.2-39.3-33.7-35.8-32.9,2.8
			C980.7,1611.7,965.8,1636.9,942.2,1657.8z"/>
		<path class="st0" d="M964,1498.4c38.7-37.1,51.4-89.1,140.8-97.3c-28.9,104.1-51.8,104.2-144.5,109.3
			c47.4-13.3,90-30.3,113.4-65.6C1040.1,1467.5,1003.4,1485.2,964,1498.4z"/>
		<path class="st0" d="M923.3,1352.3c47.5,50.2,38.2,94.4,12.4,136.8c2-26.3-0.7-51-12.1-73c2,23.4,2,46.9,0.2,70.4
			C914.1,1442.5,877.6,1400.9,923.3,1352.3z"/>
		<path class="st0" d="M620.1,191c-59.8,21.8-98.9-83.2-26.4-132.5c70.8-40,153.7,23.6,111.3,78.2c-13.1,16.8-31.1,16.5-48.3,26.7
			C641.6,172.4,631.2,187,620.1,191L620.1,191z M601.2,80.6c-29.1,17.6-36.1,45.7-16.6,86.6c17,26.7,38.3,9.9,21.2-16
			C594.8,128.6,594.1,105,601.2,80.6z"/>
		<path class="st0" d="M656.7,191.9c-13.9,44.2,4.4,87-55.9,133.3c-23.4-77.9-11.3-91.6,40.2-128.4c-16.3,30-26.5,60-22.5,90.7
			C627.3,254.4,640.2,222.6,656.7,191.9z"/>
		<path class="st0" d="M740.4,279.1c-55.8-16.3-64-56-62.1-100.6c20.6,31.3,69.8,40.9,68.5,88.7c-15.1-21.5-32.9-38.9-55.6-48.7
			C709.4,237.2,725.7,257.4,740.4,279.1z"/>
		<path class="st0" d="M1092.8,122.6c-43-22.4-4.2-98.5,61-83.1c59,19.2,65.9,98.6,13.3,102.9c-16.2,1.3-25.3-9-39.9-13.4
			C1114.3,125.1,1100.7,126.7,1092.8,122.6L1092.8,122.6z M1145.1,55c-24.9-7.3-44.3,3.2-57.3,35.3c-6.3,23.3,14.2,26.6,19.9,3.7
			C1114.8,76.2,1127.8,63.6,1145.1,55z"/>
		<path class="st0" d="M1117.5,140.9c-36.7,13.3-49.4,50.7-110.2,39.9c30-50.3,44.1-53.4,85.4-45.1c-13.5,6.6-25.6,15-35.6,26.1
			c18.1-8.6,36.7-15.8,55.8-21.8L1117.5,140.9z"/>
		<path class="st0" d="M1106.9,239c-18.8-35.2-8.8-59.1,10.9-79.2c-2.2,13.8-2.4,27.5,0.4,41.2c2.7-13.8,6-27.4,10.1-40.8
			C1127.2,187.6,1141.5,217.8,1106.9,239z"/>
		<path class="st0" d="M1197.2,453.8c-50.8-26.5-4.9-116.3,72-98.1c69.7,22.7,77.8,116.4,15.7,121.5c-19.1,1.5-29.8-10.6-47.1-15.8
			C1222.7,456.7,1206.6,458.7,1197.2,453.8L1197.2,453.8z M1259.1,374.1c-29.4-8.6-52.3,3.8-67.6,41.7c-7.4,27.5,16.7,31.4,23.5,4.3
			C1223.3,399,1238.6,384.2,1259.1,374.1z"/>
		<path class="st0" d="M1213.6,481.3c-34.2,18.5-53,52.6-117.2,41.2c37.3-62.6,53.8-63.2,109-51.6c-23.8,6.2-44.9,16.1-61.4,32.5
			C1166.4,494.1,1189.7,486.8,1213.6,481.3z"/>
		<path class="st0" d="M1213.9,591.3c-21-39.4-11.5-66.7,9.3-89.7c-5,19-6.5,37.9-2.6,56.6c4.5-24.2,11.2-47.8,19.7-71
			C1233.2,522.2,1259.5,563.4,1213.9,591.3z"/>
		<path class="st0" d="M476.4,643.2c45.2-24.8,89.4,54.6,37.3,103c-51.9,40.7-126-0.1-98.7-49.1c8.4-15,22.9-17,35.4-27.3
			C461.5,660.8,468,647.8,476.4,643.2L476.4,643.2z M505.1,729.4c21.2-17.7,23.4-41.1,2.7-71.4c-16.9-19.3-31.9-3.2-15,15.4
			C504.4,690.2,507.8,709,505.1,729.4z"/>
		<path class="st0" d="M447.2,645.9c5.1-36.6-13.9-68.5,28.3-112.5c27.6,58,20.7,71.3-13.7,105.1c4.7-17.3,6.3-34.6,3.4-51.9
			C460.6,606.8,454.6,626.5,447.2,645.9z"/>
		<path class="st0" d="M365.2,586.9c43.7,4.4,58.4,28.9,64.1,59.7c-9.2-12.8-20-23.6-33.3-31.8c8.3,11.4,15.9,23.2,23,35.4
			C395.6,634.7,363.5,628.1,365.2,586.9z"/>
		<path class="st0" d="M394.5,1276c45.2-24.8,89.4,54.6,37.3,103c-51.9,40.8-126-0.1-98.7-49.1c8.4-15,22.9-17,35.4-27.3
			C379.6,1293.5,386.1,1280.5,394.5,1276L394.5,1276z M423.2,1362.1c21.2-17.7,23.4-41,2.7-71.4c-16.9-19.3-31.9-3.2-15,15.4
			C422.5,1322.9,425.9,1341.7,423.2,1362.1z"/>
		<path class="st0" d="M366,1271.1c2.1-33.6-11.8-64.1,27.6-105.1c28.3,59.5,20.3,72-16.4,107.7c4.6-19.2,5.7-38.1,1.4-56.8
			C375.6,1235.3,371.4,1253.4,366,1271.1z"/>
		<path class="st0" d="M283.3,1219.6c41.8,4.2,57,26.7,63.3,55.5c-12.4-10.8-26.1-19.3-41.6-24.2c13.3,11.2,25.8,23.2,37.7,35.9
			C319.2,1268.2,281.5,1264.2,283.3,1219.6z"/>
		<path class="st0" d="M453.2,1027.1c22.3-64.5,73.1-85.8,135.5-51.6c38.4,26.3,35,83.3,3.2,128.3c-23.2,26.9-28.4,71.8,11.1,66.8
			c-18.2,18.8-45.1,20.2-54.6-17.6C532.8,1100.5,434.9,1127.5,453.2,1027.1L453.2,1027.1z M505.1,994.9c36.6,4,64.7,30.6,90.5,63.6
			C610.7,987.7,547.1,963.2,505.1,994.9z"/>
		<path class="st0" d="M481.5,919.8c-14.8-21.2-39.3-87.7-56.5-53.2c-30.5-16.3-46.3-33.7-43.6,4c-25-15-38.8-9.8-41.4,15.8
			c-70.3,28.9-18.2,39.5,52.6,48.8c-34.7,22.1,13.1,22,35.1,23.6c8.6,51.5,50.3,16.3,56.1-8.3c-21-25.8-54.7-39.4-100-42
			C420.2,896,452.1,902.5,481.5,919.8z"/>
		<path class="st0" d="M538.8,925.1c-16.9-22.8-77.5-71.2-35.8-77.2c-6.4-37.3-19-59.8,19.3-43.9c-7-31.2,3.3-43.7,30.7-37.5
			c54.5-63.1,47.4-5.2,32.5,71.6c35-28.5,18.4,21.3,12.4,44.7c50.6,26.8-0.4,58-28.1,55.4c-19.5-30.8-22-70.6-9-118.6
			C535.3,853.2,531,888.6,538.8,925.1z"/>
		<path class="st0" d="M802.7,591.7c36.8-62.2,94-73.5,151.5-24.9c34.2,35.4,18.8,93.8-23.7,133.7c-29.7,23-44.6,68.5-2.6,71.6
			c-22.9,15.6-51.1,11.4-53-29.7C869.7,684.6,762.5,691.9,802.7,591.7L802.7,591.7z M863.3,569.3c37.1,11.8,60.7,45.4,80.5,85
			C974.3,584.1,913.5,545.3,863.3,569.3z"/>
		<path class="st0" d="M854.6,486.4c-10.9-25.1-22.2-99.2-47.3-67.1c-28.1-23.3-40.9-44.7-46-5c-22.7-20.9-38.1-18.3-46.2,7.6
			c-79,15.2-27.2,37.2,44.3,61.7c-40.7,15.6,9,25.6,31.4,31.9c-2,55.3,48.7,27.6,59.9,3.2c-16.4-31.2-48.5-52.4-94.9-64.6
			C796.1,448.8,827.8,462.3,854.6,486.4z"/>
		<path class="st0" d="M912.9,504c-12.8-27.2-65.4-90.2-20.8-87.6c1.2-40.1-7.1-66,29.3-41.5c-0.7-33.8,12.6-44.6,39.8-32.4
			c69.8-53.9,50.3,4.6,18.6,81.2c42.4-22.1,14.5,25.9,3.5,49c46.9,38.5-12.7,60.1-40.8,51.6c-13.8-36.1-7.9-77.9,15.7-124.9
			C924.5,428.7,912.6,464.5,912.9,504z"/>
		<path class="st0" d="M1199,727.3c18.1-30.6,46.2-36.2,74.5-12.3c16.8,17.4,9.2,46.1-11.7,65.8c-14.6,11.3-22,33.7-1.3,35.2
			c-11.2,7.7-25.1,5.6-26-14.6C1231.9,773,1179.2,776.6,1199,727.3L1199,727.3z M1228.8,716.2c18.2,5.8,29.8,22.3,39.6,41.8
			C1283.4,723.5,1253.5,704.5,1228.8,716.2z"/>
		<path class="st0" d="M1224.5,675.5c-5.4-12.4-10.9-48.8-23.3-33c-13.8-11.5-20.1-22-22.6-2.5c-11.2-10.2-18.8-9-22.7,3.7
			c-38.8,7.5-13.4,18.3,21.8,30.4c-20,7.7,4.4,12.6,15.4,15.7c-1,27.2,24,13.6,29.5,1.6c-8.1-15.3-23.8-25.8-46.7-31.8
			C1195.7,657,1211.3,663.6,1224.5,675.5z"/>
		<path class="st0" d="M1253.2,684.1c-6.3-13.4-32.2-44.4-10.2-43.1c0.6-19.7-3.5-32.5,14.4-20.4c-0.3-16.6,6.2-21.9,19.6-16
			c34.3-26.5,24.7,2.3,9.1,39.9c20.8-10.9,7.2,12.8,1.7,24.1c23.1,18.9-6.2,29.5-20.1,25.4c-6.8-17.8-3.9-38.3,7.7-61.4
			C1258.9,647.1,1253,664.7,1253.2,684.1z"/>
		<path class="st0" d="M931.8,1249.9c26.5-44.8,67.7-53,109.2-18c24.7,25.5,13.5,67.6-17.1,96.4c-21.4,16.6-32.2,49.4-1.9,51.6
			c-16.5,11.3-36.8,8.2-38.2-21.4C980.1,1316.9,902.8,1322.2,931.8,1249.9L931.8,1249.9z M975.5,1233.8c26.7,8.5,43.7,32.7,58,61.3
			C1055.5,1244.4,1011.7,1216.5,975.5,1233.8z"/>
		<path class="st0" d="M969.2,1174c-7.8-18.1-16-71.5-34.1-48.4c-20.3-16.8-29.5-32.2-33.2-3.6c-16.4-15-27.5-13.2-33.3,5.5
			c-56.9,10.9-19.6,26.8,31.9,44.5c-29.4,11.2,6.4,18.4,22.6,23c-1.4,39.8,35.1,19.9,43.2,2.3c-11.8-22.5-34.9-37.8-68.4-46.6
			C927,1146.9,949.9,1156.6,969.2,1174z"/>
		<path class="st0" d="M1011.3,1186.7c-9.2-19.6-47.1-65-15-63.1c0.9-28.9-5.1-47.6,21.1-29.9c-0.5-24.4,9.1-32.2,28.7-23.4
			c50.3-38.9,36.3,3.3,13.4,58.5c30.5-16,10.5,18.7,2.5,35.3c33.8,27.7-9.1,43.3-29.4,37.2c-9.9-26-5.7-56.1,11.3-90
			C1019.6,1132.4,1011,1158.2,1011.3,1186.7z"/>
		<path class="st0" d="M214.9,1036.9c24.7,8,95.4,12.1,67.5,38.6c24.5,24.4,45.7,34.5,8.8,42.9c21.7,19.6,20.6,34.3-3.1,44.2
			c-7.3,75.8-32.6,29-62.1-36.3c-11.1,39.8-24.9-6.1-32.9-26.7c-51.9,6.8-30.3-43.5-8.3-56.2c30.8,12.6,53.7,41,69.3,83.7
			C255.5,1088.7,239.9,1060,214.9,1036.9z"/>
		<path class="st0" d="M354.4,792.4c-12.3-22.8-28.9-91.7-50-59.5c-28.4-19.7-42.1-38.9-43.8-1c-23.1-17.8-37.4-14.2-42.9,10.9
			c-73.3,20.7-22.7,37.2,46.7,54.6c-37.1,18,10.5,23.4,32.2,27.6c2.6,52.3,48.2,22.1,56.7-1.8c-17.9-28.1-49.9-45.5-94.7-53.3
			C296.2,761.6,327.2,771.8,354.4,792.4z"/>
		<path class="st0" d="M788.4,801.3c8.3-24.6,47.3-83.8,9.3-77.2c-5-34.2-0.3-57.3-29.1-32.7c-2.7-29.1-15.1-37-37.3-24
			c-65.1-39.4-42.7,8.8-8,71.4c-38.5-14.9-10,23.7,1.8,42.3c-36.5,37.6,16.7,50.3,40,40.3c8.3-32.3-0.8-67.6-25.7-105.6
			C771.2,737.8,784.9,767.4,788.4,801.3z"/>
		<path class="st0" d="M181,854.8c6.3,72.8,7.5,115,78,147.4c-6.3-27-20.3-58.1-41.8-93.1c21.1,15.9,43.6,43.2,59.2,79.3
			C286.6,926.9,239.6,878.2,181,854.8z"/>
		<path class="st0" d="M653.8,1268.1c-16.7-56-108.1-56.7-146.2-37.5c-0.1,58,95.8,77,142.5,59.4c-33-9.5-70.6-19.2-81.8-47.5
			C587.3,1256.9,620.9,1260,653.8,1268.1z"/>
		<path class="st0" d="M735.5,1084.6c36.8-45.5-14.4-121.3-51.8-141.8c-47.9,32.7-9.4,122.5,31.6,151.2
			c-10.8-32.6-24.1-69.1-7.1-94.3C707.1,1023.4,723.5,1052.8,735.5,1084.6z"/>
		<path class="st0" d="M421.3,1129.5c36.8-45.5-14.4-121.3-51.8-141.8c-47.9,32.7-9.4,122.5,31.6,151.2
			c-10.8-32.6-24.1-69.1-7.1-94.3C392.9,1068.3,409.3,1097.7,421.3,1129.5z"/>
		<path class="st0" d="M803.1,855.5c31.3-64,72.1-76.1,123.8-34.8c117-112.3,161.9,144.8,103.9,220.2c-24,37.3-63.2,38.2-112.7,14.1
			c-35.6,30.8-72,35.6-110-16.8C779.3,979.1,774.1,918.4,803.1,855.5L803.1,855.5z M882.5,869.3c12.5-23-10.7-42.8-28.7-8.6
			c-32.6,69.4-31.3,122.5,6.9,179c12.8,17.5,33.3,4.3,18.6-14.4C848.4,971,851.2,922.1,882.5,869.3L882.5,869.3z M974,858.8
			c33.1,51.7,37.8,100.4,8.8,155.9c-14,19.2,7,31.6,19.1,13.7c36.1-57.9,35.5-111,0.4-179.2C983.2,815.7,960.6,836.3,974,858.8z"/>
		<path class="st0" d="M1381.7,424.4c3-54,28-74.5,76.4-60.9c48.8-113.1,156,53.6,137.7,123.5c-5.8,33.2-33,45.4-74.8,43.1
			c-15.8,32.1-39.9,46.2-81.9,20.7C1401.5,518,1380,477,1381.7,424.4L1381.7,424.4z M1441.3,410.7c2-19.8-20.1-26.8-22.6,2.5
			c-2.4,58.2,14.3,95,57.6,123.3c14.1,8.5,24.6-6.8,8.8-15.5C1447.5,492,1435,456.9,1441.3,410.7L1441.3,410.7z M1502.3,376.4
			c38.5,26.4,56.1,59.2,52.2,106.5c-4.1,17.6,14.2,20.1,17.4,3.9c8.2-51.2-7.9-88.2-52.6-125.5
			C1496,343.4,1486.3,364.5,1502.3,376.4z"/>
		<path class="st0" d="M1481.6,1069.4c41.7-40.6,76.5-38.7,104.9,7.3c121-54.2,84.7,156.1,19.3,198.1c-28.8,22.1-59.2,12-90.7-20.2
			c-35.9,13.9-65.2,7.6-80.1-43.2C1429.2,1158,1441.9,1109.9,1481.6,1069.4L1481.6,1069.4z M1538.9,1101.9
			c16-14.2,3.5-35.9-19.7-14.5c-44.2,44.4-57.8,85.7-44,139.7c5,17,24.5,12.5,18.3-5.9C1484.6,1170.9,1500.2,1134,1538.9,1101.9
			L1538.9,1101.9z M1612.2,1119.1c11.3,48.9,1.4,87.7-36.2,122.4c-16.1,10.9-3.4,26.3,11,15.8c43.7-34.6,57.9-75.7,49.7-137.8
			C1631.2,1088.4,1608.1,1098,1612.2,1119.1z"/>
		<path class="st0" d="M635.4,1518.9c28-39.7,56.8-43.4,87.1-10c90.9-62.9,93.3,115,46.1,159.5c-20.2,22.5-46.7,18.9-77.4-2.7
			c-27.3,16.9-52.3,16.2-72.2-23.2C606,1599.5,609,1558.1,635.4,1518.9L635.4,1518.9z M687.3,1536.8c10.9-14.1-2.6-30-18.4-8.9
			c-29.5,43.2-34.3,79.1-14.7,121.3c6.7,13.2,22,6.5,14.1-7.6C653.3,1601.6,660.6,1569,687.3,1536.8L687.3,1536.8z M750.1,1539.6
			c16.7,38.4,14.6,71.7-10.9,105.9c-11.5,11.4,1.3,22.1,11.4,11.3c30.6-35.1,35.9-70.9,19.7-120.6
			C760.9,1511.6,743.5,1523,750.1,1539.6z"/>
		<path class="st0" d="M539.3,1475.8c66.4,51-22.5,168.6-128.5,122.9c-94.5-50.4-82.4-187.3,8.2-178.8c27.9,2.7,40.3,22.8,63.8,34.7
			C503.4,1465.2,527,1466.4,539.3,1475.8L539.3,1475.8z M430.1,1574.9c40.1,19.9,76.3,7.8,107.8-42.8c17.7-37.8-16.1-49.5-32.7-12.2
			C487.9,1548.1,462.1,1565.5,430.1,1574.9z"/>
		<path class="st0" d="M832.1,1479.7c54.1-22.3,45.5-113.3,22.5-149.3c-57.7,5.7-66.9,103-44.8,147.8c6.1-33.8,11.9-72.2,39-86.2
			C836.6,1412.3,836.8,1446,832.1,1479.7z"/>
		<path class="st0" d="M1136.7,980.8c47.8-33.6,19.4-120.6-10.9-150.6c-55,18.3-42.6,115.3-11.1,154c-1.5-34.3-4.2-73,19.1-92.6
			C1126.2,914.1,1133.9,946.9,1136.7,980.8z"/>
		<path class="st0" d="M305.2,473.6c-29-41.7-22.3-71.3,21.3-89.1c-29.3-111.7,146.3-50.5,173,11.7c14.9,27.9,1.8,52.6-30.4,75
			c6.8,32.8-2.8,57.1-48.6,62.6C373.9,531.2,334.3,513.5,305.2,473.6L305.2,473.6z M341.4,429c-10-15.8-30.4-8.2-15.3,14.9
			c31.9,44.4,65.4,61.9,113.8,57.8c15.3-1.9,14.3-19.2-2.5-16.6C392.8,485.5,363.4,466.8,341.4,429L341.4,429z M366.6,368.4
			c43.6-2.7,75.6,11.3,100.1,48.6c7.1,15.4,22.1,6.6,15.1-7.2c-23.5-42.5-56.8-60.6-111.3-62.4C342.9,347.7,347.9,368.9,366.6,368.4
			z"/>
		<path class="st0" d="M1112.3,351.2c-59.6,42.4-95.3,64.8-87.4,142c20.1-19.1,39.8-47,59-83.3c-3,26.2-15.1,59.4-38.3,91.2
			C1103.8,478.7,1121.9,413.5,1112.3,351.2z"/>
		<path class="st0" d="M629.5,341.1c61.9,38.9,96.2,63.4,164.6,26.7c-25.3-11.3-58.6-18.8-99.5-22.8c25.4-7.2,60.7-8.7,99,0.6
			C750.7,300.3,683.5,308.5,629.5,341.1z"/>
	</g>
</g>
</svg>
