<?xml version="1.0" encoding="utf-8"?>
<!-- Generator: Adobe Illustrator 23.0.3, SVG Export Plug-In . SVG Version: 6.00 Build 0)  -->
<svg version="1.1" id="Warstwa_1" xmlns="http://www.w3.org/2000/svg" xmlns:xlink="http://www.w3.org/1999/xlink" x="0px" y="0px"
	 viewBox="0 0 374 374" enable-background="new 0 0 374 374" xml:space="preserve">
<rect fill="#DBE9D0" width="374" height="374"/>
<g>
	<g>
		<g>
			<path fill="#43731D" d="M215.19,129.14c-15.84,15.84-33.78,10.75-37.11,7.42c-3.33-3.33-7.94-21.74,7.42-37.11
				C200.87,84.09,232.64,82,232.64,82S231.03,113.3,215.19,129.14z"/>
		</g>
	</g>
	<g>
		<path fill="#43731D" d="M261.36,167.94c-5.85-11.65-15.07-19.12-24.72-22.44c-15.19-5.22-34.29-1.61-49.64,9.94
			c-15.35-11.55-34.45-15.15-49.64-9.94c-9.65,3.31-18.87,10.78-24.72,22.44c-10.07,20.05-8.71,49.43,0.56,69.52
			c16.56,35.91,47.36,55.37,73.8,38.23c26.44,17.14,57.23-2.32,73.8-38.23C270.07,217.37,271.43,187.99,261.36,167.94z
			 M154.04,258.72c-1.06,1.08-2.46,1.63-3.86,1.63c-1.35,0-2.71-0.51-3.75-1.52c-13.99-13.62-23.06-30.39-25.52-47.24
			c-2.84-19.39,3.42-39.18,16.33-51.64c2.14-2.06,5.55-2,7.61,0.14c2.06,2.14,2,5.54-0.13,7.61c-10.46,10.09-15.5,26.32-13.16,42.34
			c2.12,14.52,10.07,29.11,22.38,41.08C156.06,253.19,156.11,256.59,154.04,258.72z"/>
	</g>
</g>
</svg>
