<?xml version="1.0" encoding="utf-8"?>
<!-- Generator: Adobe Illustrator 23.0.3, SVG Export Plug-In . SVG Version: 6.00 Build 0)  -->
<svg version="1.1" id="Capa_1" xmlns="http://www.w3.org/2000/svg" xmlns:xlink="http://www.w3.org/1999/xlink" x="0px" y="0px"
	 viewBox="0 0 512 512" enable-background="new 0 0 512 512" xml:space="preserve">
<g>
	<g>
		<path d="M256,0C114.84,0,0,114.84,0,256s114.84,256,256,256s256-114.84,256-256S397.16,0,256,0z M256,74.67
			c67.64,0,122.67,55.03,122.67,122.67S323.64,320,256,320s-122.67-55.03-122.67-122.67S188.37,74.67,256,74.67z M256,469.33
			c-69.71,0-131.52-33.76-170.47-85.61c42.68-20.53,103.62-42.39,170.47-42.39c66.86,0,127.81,21.85,170.47,42.38
			C387.52,435.58,325.71,469.33,256,469.33z"/>
	</g>
</g>
</svg>
