<?xml version="1.0" encoding="utf-8"?>
<!-- Generator: Adobe Illustrator 23.0.3, SVG Export Plug-In . SVG Version: 6.00 Build 0)  -->
<svg version="1.1" id="Warstwa_1" xmlns="http://www.w3.org/2000/svg" xmlns:xlink="http://www.w3.org/1999/xlink" x="0px" y="0px"
	 viewBox="0 0 512 445.04" enable-background="new 0 0 512 445.04" xml:space="preserve">
<g>
	<path fill-rule="evenodd" clip-rule="evenodd" fill="#FBED3F" d="M448.62,38.91H328.95C313.15,15.46,286.34,0,256,0
		s-57.14,15.46-72.95,38.91H63.38C28.43,38.91,0,67.34,0,102.29v279.36c0,34.95,28.43,63.38,63.38,63.38H216c5.52,0,10-4.48,10-10
		s-4.48-10-10-10H63.38c-23.92,0-43.38-19.46-43.38-43.38V102.29c0-23.92,19.46-43.38,43.38-43.38h109.64
		c-3.18,9.08-4.91,18.83-4.91,28.98c0,48.46,39.43,87.89,87.89,87.89s87.89-39.43,87.89-87.89c0-10.15-1.73-19.9-4.91-28.98h109.64
		c23.92,0,43.38,19.46,43.38,43.38v279.36c0,23.92-19.46,43.38-43.38,43.38H296c-5.52,0-10,4.48-10,10s4.48,10,10,10h152.62
		c34.95,0,63.38-28.43,63.38-63.38V102.29C512,67.34,483.57,38.91,448.62,38.91z M266,155.05v-12.93c0-5.52-4.48-10-10-10
		s-10,4.48-10,10v12.93c-29.45-4.37-52.79-27.71-57.15-57.16h12.92c5.52,0,10-4.48,10-10s-4.48-10-10-10h-12.92
		c4.37-29.45,27.71-52.79,57.15-57.15v12.93c0,5.52,4.48,10,10,10s10-4.48,10-10V20.74c29.45,4.37,52.79,27.71,57.15,57.15h-12.92
		c-5.52,0-10,4.48-10,10s4.48,10,10,10h12.92C318.79,127.34,295.45,150.68,266,155.05z"/>
	<path fill-rule="evenodd" clip-rule="evenodd" fill="#FBED3F" d="M109.92,134.01c-18.54,0-35,12.71-46.36,35.79
		c-10.75,21.85-16.44,51.59-16.44,86c0,37.22,3.73,71.21,10.5,95.71c9.11,32.98,23.64,49.71,43.2,49.71c0.64,0,1.29-0.02,1.94-0.06
		c13.84-0.84,30.58-4.62,37.23-26.52c4.54-14.95,4.54-37.75,4.54-72.27c0-12.11,3.8-24.93,7.82-38.52
		c3.27-11.05,6.66-22.48,8.04-34.05c4.75-39.63,0.61-65.25-13.04-80.64C138.44,139.11,125.84,134.01,109.92,134.01z M140.54,227.42
		c-1.19,9.89-4.19,20.03-7.36,30.76c-4.25,14.35-8.64,29.19-8.64,44.19c0,31.55,0,54.35-3.68,66.46
		c-2.45,8.04-5.67,11.54-19.31,12.37c-0.25,0.02-0.49,0.02-0.73,0.02c-9.05,0-17.77-12.77-23.92-35.04
		c-6.3-22.81-9.77-54.91-9.77-90.38c0-66.11,22.05-101.79,42.8-101.79c10.1,0,17.45,2.76,22.48,8.42
		C141.71,172.93,144.45,194.8,140.54,227.42z"/>
	<path fill-rule="evenodd" clip-rule="evenodd" fill="#FBED3F" d="M367.46,302.37c0,34.52,0,57.32,4.54,72.27
		c6.66,21.9,23.39,25.68,37.23,26.52c0.65,0.04,1.3,0.06,1.94,0.06c19.55,0,34.09-16.73,43.2-49.71c6.77-24.5,10.5-58.49,10.5-95.71
		c0-34.41-5.69-64.14-16.44-86c-11.35-23.08-27.82-35.79-46.36-35.79c-15.92,0-28.52,5.1-37.44,15.15
		c-13.65,15.39-17.79,41.01-13.04,80.64c1.39,11.57,4.77,23,8.04,34.05C363.67,277.43,367.46,290.26,367.46,302.37z M379.61,162.43
		c5.03-5.67,12.38-8.42,22.48-8.42c20.75,0,42.8,35.67,42.8,101.79c0,35.47-3.47,67.57-9.77,90.38
		c-6.15,22.27-14.87,35.04-23.92,35.04c-0.24,0-0.48-0.01-0.73-0.02c-13.64-0.83-16.87-4.32-19.31-12.37
		c-3.68-12.11-3.68-34.9-3.68-66.45c0-15-4.39-29.84-8.64-44.19c-3.18-10.73-6.18-20.86-7.36-30.76
		C367.55,194.8,370.29,172.93,379.61,162.43z"/>
	<path fill-rule="evenodd" clip-rule="evenodd" fill="#FBED3F" d="M278.19,52.89L249.1,80.66c-4,3.82-4.14,10.14-0.33,14.14
		c1.96,2.06,4.6,3.09,7.24,3.09c2.48,0,4.96-0.92,6.9-2.77L292,67.36c4-3.82,4.14-10.14,0.33-14.14
		C288.52,49.22,282.19,49.07,278.19,52.89z"/>
	<path fill-rule="evenodd" clip-rule="evenodd" fill="#FBED3F" d="M256,425.04c-5.51,0-10,4.49-10,10s4.49,10,10,10s10-4.49,10-10
		S261.51,425.04,256,425.04z"/>
</g>
</svg>
